PathFileType	4	(X/Y/Z)	C:/Users/opensim2020/Desktop/walking_exp_matlab/subject01_walking07_straight_04.trc	
DataRate	CameraRate	NumFrames	NumMarkers	Units	OrigDataRate	OrigDataStartFrame	OrigNumFrames	
100.00	100.00	8	43	mm	100.00	2812	176	
Frame#	Time	LFHD			RFHD			LBHD			RBHD			C7			T10			CLAV			STRN			RBAK			LSHO			LUPA			LELB			LFRM			LWRA			LWRB			LFIN			RSHO			RUPA			RELB			RFRM			RWRA			RWRB			RFIN			LASI			RASI			LPSI			RPSI			LTHI			LKNE			LTIB			LANK			LHEE			LTOE			RTHI			RKNE			RTIB			RANK			RHEE			RTOE			*39			*40			*41			*42			
		X1	Y1	Z1	X2	Y2	Z2	X3	Y3	Z3	X4	Y4	Z4	X5	Y5	Z5	X6	Y6	Z6	X7	Y7	Z7	X8	Y8	Z8	X9	Y9	Z9	X10	Y10	Z10	X11	Y11	Z11	X12	Y12	Z12	X13	Y13	Z13	X14	Y14	Z14	X15	Y15	Z15	X16	Y16	Z16	X17	Y17	Z17	X18	Y18	Z18	X19	Y19	Z19	X20	Y20	Z20	X21	Y21	Z21	X22	Y22	Z22	X23	Y23	Z23	X24	Y24	Z24	X25	Y25	Z25	X26	Y26	Z26	X27	Y27	Z27	X28	Y28	Z28	X29	Y29	Z29	X30	Y30	Z30	X31	Y31	Z31	X32	Y32	Z32	X33	Y33	Z33	X34	Y34	Z34	X35	Y35	Z35	X36	Y36	Z36	X37	Y37	Z37	X38	Y38	Z38	X39	Y39	Z39	X40	Y40	Z40	X41	Y41	Z41	X42	Y42	Z42	X43	Y43	Z43	

45	0.440	-1047.21997	403.66724	1667.53320	-1153.77026	359.35062	1671.32983	-1088.27417	516.60620	1632.76245	-1202.10693	473.79114	1637.22034	-1114.60754	554.93195	1431.76477	-1114.63757	583.31012	1136.79370	-1116.47778	408.78299	1369.57593	-1106.92456	361.08398	1216.75671	-1185.61340	604.35602	1233.64160	-955.01929	463.81601	1401.22229	-861.68707	467.51840	1218.90796	-855.45428	462.44989	1065.60889	-837.73529	395.16757	969.92804	-869.55249	292.54053	880.36163	-837.96997	339.79935	860.72119	-835.70337	272.56299	809.58502	-1267.53772	475.51892	1391.48145	-1357.60168	540.08295	1187.77039	-1356.95984	538.55884	1064.23975	-1388.29541	520.74152	946.63678	-1375.59265	447.60373	823.69751	-1411.04980	494.10202	828.66162	-1408.75330	465.45218	746.08319	-1001.18054	410.64676	932.49591	-1215.78394	397.05609	939.85413	-1063.79407	592.38318	942.79950	-1209.26233	582.46130	950.24005	-941.13458	434.43958	594.23895	-946.27124	452.40280	461.05936	-939.48376	601.70770	351.32413	-991.21069	764.47174	206.66754	-1047.15161	806.09125	223.82524	-995.24438	723.51019	64.42170	-1277.94397	408.16162	609.00244	-1251.18628	371.83987	454.95230	-1262.67908	411.67920	281.63260	-1217.15369	425.35089	76.92365	-1170.30396	475.69492	38.10717	-1212.15552	284.71304	37.86613	-1134.63147	374.10385	1706.19104	-3101.89111	1973.18420	1023.40063	-3140.73975	2012.52673	1022.00964			 
46	0.450	-1048.44165	395.04562	1668.30957	-1154.82605	350.55960	1672.13293	-1089.73914	507.86658	1633.23132	-1203.39844	464.87009	1637.70874	-1116.24890	545.70294	1432.42566	-1116.78516	574.27435	1137.43103	-1117.32483	399.58005	1370.04285	-1107.75037	352.06271	1217.14600	-1187.95459	595.04523	1234.37292	-956.08490	455.35718	1401.63049	-863.16199	460.84229	1218.90515	-857.10144	457.69766	1065.82483	-839.30890	393.01788	968.46545	-870.53174	292.68082	876.12573	-839.10144	340.63654	857.75793	-836.74969	275.10788	804.56116	-1268.69763	465.43106	1392.09314	-1359.74854	528.61938	1188.28113	-1359.28577	526.47534	1064.64941	-1390.72913	507.15811	947.30939	-1377.83191	432.23575	825.31757	-1413.24731	478.80484	829.56519	-1411.18506	448.75031	747.57416	-1002.50366	402.04648	932.99695	-1217.37561	388.42325	940.01349	-1065.00122	583.65216	942.66339	-1210.37732	573.84332	950.40356	-941.64276	420.23172	595.55664	-947.16168	434.88889	462.22064	-940.18756	583.91241	353.12997	-992.93829	747.52576	210.75677	-1049.94458	788.88574	226.64540	-991.42383	706.59723	68.58527	-1278.83496	401.97479	608.83154	-1251.67163	367.79373	454.33734	-1263.27295	409.71317	281.56619	-1217.16638	425.23813	76.91348	-1170.27161	475.83322	38.32813	-1211.95251	284.49075	37.64972	-1135.60132	365.44009	1706.96631	-3101.99292	1973.19812	1023.25104	-3140.86182	2012.50989	1022.02118			 
47	0.460	-1049.31152	386.33801	1668.98889	-1155.63147	341.69263	1672.89551	-1090.49756	498.92212	1633.51501	-1204.48230	455.85425	1638.19495	-1117.68530	536.42224	1432.97852	-1118.78296	565.41815	1138.09180	-1118.08606	390.33957	1370.40930	-1108.45728	343.13327	1217.35730	-1190.27136	586.24146	1235.26648	-956.99188	446.97189	1401.99121	-864.69507	454.56036	1218.97253	-859.41028	452.60385	1065.84485	-840.77985	390.97916	967.18408	-871.37726	293.02463	871.99951	-840.12061	341.62881	854.97034	-837.60187	277.56625	799.99689	-1269.72156	455.35446	1392.67249	-1361.82544	517.04144	1188.75012	-1361.58936	514.32050	1065.07263	-1393.07373	493.43573	947.91345	-1380.00183	416.85272	827.10321	-1415.49329	463.10107	830.52161	-1413.45850	431.89346	749.08771	-1003.72162	393.17645	933.55994	-1218.88916	379.90286	940.16400	-1066.04932	575.00775	942.55670	-1211.41833	565.58087	950.47638	-942.04944	406.24820	597.14722	-948.01007	417.40622	463.97855	-942.00775	566.04285	355.13461	-994.56531	730.29553	214.28485	-1052.98755	770.80927	228.36928	-988.59863	688.49823	72.28976	-1279.40894	396.05670	608.47852	-1252.11389	363.78552	453.80966	-1263.67017	407.41293	281.39996	-1217.00720	425.00955	76.91762	-1170.14856	475.71796	38.40147	-1211.71558	284.35071	37.48579	-1136.56665	356.73401	1707.68567	-3101.82080	1973.17419	1023.43854	-3140.75171	2012.44568	1021.88013			 
48	0.470	-1050.05005	377.59872	1669.54187	-1156.37561	332.78952	1673.59607	-1091.60437	490.10471	1633.93262	-1205.38843	446.77417	1638.67847	-1119.05188	527.27600	1433.56543	-1120.59705	556.60724	1138.71802	-1118.72559	381.23294	1370.70837	-1109.07849	334.33539	1217.56836	-1192.35388	577.18091	1236.13843	-957.86719	438.61206	1402.34753	-866.22534	448.12106	1218.96191	-861.44568	447.91852	1066.03186	-842.28931	389.08603	965.90057	-872.21783	293.56351	867.96204	-841.06970	342.69156	852.41406	-838.47656	280.22751	795.46692	-1270.65417	445.29251	1393.18494	-1363.77222	505.33704	1189.17175	-1363.87085	502.08966	1065.48425	-1395.28796	479.15552	948.39417	-1382.08118	401.23947	828.88361	-1417.77271	447.59814	831.69232	-1415.79736	414.93921	750.79578	-1004.96722	384.39444	934.20776	-1220.45325	371.50668	940.30841	-1067.02722	566.37903	942.62030	-1212.23950	557.28754	950.39636	-942.24097	392.37527	599.12103	-948.75085	400.00266	466.14471	-943.69482	548.09149	357.16006	-996.28619	712.02802	216.43236	-1055.98254	751.97644	228.88661	-986.04474	669.48102	75.47128	-1279.71362	390.35742	608.11578	-1252.43591	359.65930	452.98596	-1263.73828	404.83844	281.11954	-1216.84436	424.76984	76.92019	-1169.99121	475.93243	38.33439	-1211.49646	284.24301	37.29309	-1137.37634	347.92819	1708.47864	-3101.91821	1973.11108	1023.30225	-3140.78198	2012.54028	1021.95673			 
49	0.480	-1050.64746	368.82428	1670.09790	-1156.86755	323.78464	1674.22510	-1092.37708	481.16559	1634.34070	-1206.11621	437.61313	1639.14270	-1120.38843	518.12189	1434.17297	-1122.28394	548.03040	1139.42676	-1119.29565	372.14731	1371.06384	-1109.69165	325.64142	1217.72241	-1194.22083	568.12390	1237.01147	-958.64612	430.23358	1402.62622	-867.64697	441.80707	1218.96326	-862.96179	443.95020	1066.48755	-843.83472	387.12875	964.82520	-872.99622	294.24902	864.09082	-842.14966	343.97998	850.07251	-839.26740	283.15491	791.15936	-1271.51428	435.33679	1393.76807	-1365.69641	493.56992	1189.60437	-1366.10022	489.75540	1065.91064	-1397.52478	465.12253	949.12274	-1384.10779	385.60468	830.74780	-1419.92932	431.77954	832.79254	-1418.16089	397.86084	752.57288	-1006.10590	375.71121	935.01282	-1221.95874	363.11655	940.50757	-1067.85583	557.79315	942.78479	-1212.99866	549.05304	950.33496	-942.42523	378.44360	601.19781	-949.32880	382.68478	468.55551	-945.40869	529.71570	358.82727	-997.93829	692.98932	217.53758	-1058.58557	732.73938	228.36397	-983.60132	649.55188	77.33710	-1280.47729	384.01068	608.00940	-1252.74805	355.70587	452.46423	-1263.83813	401.96423	280.76282	-1216.74158	424.47614	76.92912	-1169.94629	476.04163	38.45511	-1211.28564	284.18979	37.21409	-1137.83960	339.04190	1709.07642	-3101.99219	1973.17603	1023.43512	-3140.74512	2012.59302	1021.96991			 
50	0.490	-1051.04211	360.01697	1670.49939	-1157.22742	314.69998	1674.78979	-1093.21387	472.26273	1634.73914	-1206.75037	428.40396	1639.66663	-1121.61060	509.07806	1434.84583	-1123.81787	539.34125	1140.05322	-1119.75439	363.04651	1371.24841	-1110.28918	316.93692	1217.89429	-1195.96375	559.11774	1237.92139	-959.34473	421.86023	1402.89355	-869.12329	435.79150	1219.10364	-865.30688	439.23672	1066.54150	-845.27142	385.12003	963.96240	-873.81537	295.05420	860.39368	-843.04596	345.23978	847.88306	-839.98615	286.31293	787.11487	-1272.22681	425.40076	1394.21033	-1367.54175	481.76306	1190.08643	-1368.25708	477.36871	1066.40234	-1399.66418	450.96460	949.91180	-1386.01025	369.92654	832.68768	-1422.05884	415.94128	834.10785	-1420.37109	380.76141	754.48053	-1007.23047	367.33194	935.72455	-1223.55103	354.74307	940.77380	-1068.61646	549.12073	943.15637	-1213.71350	540.92950	950.33600	-942.62030	364.58176	603.34058	-949.78772	365.42282	470.92462	-946.89661	511.38287	360.07104	-999.51965	673.43365	217.55342	-1060.98230	713.33740	226.87195	-982.39386	627.24042	79.08227	-1280.83875	378.32315	607.74542	-1252.86719	351.70450	451.63577	-1264.00195	399.02841	280.31622	-1216.40149	423.96249	76.82194	-1169.91931	475.61478	38.72352	-1211.16125	284.10568	37.21577	-1138.14941	330.04410	1709.64246	-3101.99414	1973.13440	1023.38104	-3140.55859	2012.51257	1021.98785			 
51	0.500	-1051.17810	351.06055	1671.09961	-1157.40808	305.57712	1675.27393	-1094.12756	463.07358	1634.95361	-1207.25854	419.11432	1640.15479	-1122.70044	499.98782	1435.44080	-1125.19263	530.75067	1140.68066	-1120.25476	354.10236	1371.51648	-1110.89209	308.26746	1218.02698	-1197.49133	550.17365	1238.80225	-960.02118	413.55447	1403.16272	-870.42969	429.48734	1219.07629	-867.31647	434.69995	1066.97363	-846.83936	383.27496	963.00464	-874.57703	296.02527	856.86072	-843.92090	346.67471	845.91858	-840.64935	289.62634	783.25171	-1272.86365	415.57156	1394.76807	-1369.22998	469.91040	1190.60706	-1370.35022	464.81122	1066.91516	-1401.76086	436.71716	950.78784	-1387.78003	354.24612	834.72180	-1424.05042	399.99994	835.42188	-1422.46851	363.57477	756.46686	-1008.37451	359.09082	936.56012	-1224.93481	346.36905	941.07550	-1069.29517	540.50519	943.66156	-1214.35266	532.55377	950.36414	-942.84363	350.55267	605.52948	-950.06854	348.26517	473.28110	-948.30640	492.96912	360.85846	-1001.05804	653.90442	216.91653	-1062.87134	693.82910	224.15370	-981.22931	604.04993	80.07008	-1281.40601	372.54089	607.41833	-1253.01855	347.71121	450.87637	-1263.99988	396.03894	280.01865	-1216.31543	423.69162	76.82151	-1169.88989	475.48053	38.79226	-1211.07568	284.02484	37.17219	-1138.29370	321.01425	1709.91992	-3102.04541	1973.19861	1023.55182	-3140.71240	2012.58130	1022.06781			 
52	0.510	-1051.25525	342.08633	1671.30225	-1157.41650	296.29382	1675.63574	-1095.36694	454.33582	1635.61865	-1207.52539	409.80969	1640.70886	-1123.73364	490.87012	1435.83887	-1126.48767	522.21741	1141.27271	-1120.61157	345.21451	1371.80884	-1111.49915	299.60114	1218.21619	-1198.98669	541.27637	1239.64600	-960.62805	405.23276	1403.34668	-871.55420	422.84778	1218.94775	-869.09100	430.15533	1067.28442	-848.43457	381.83804	962.31586	-875.29352	297.06232	853.51239	-844.90558	348.30386	844.16949	-841.27985	293.18839	779.76056	-1273.48315	405.93918	1395.26501	-1370.91284	458.07208	1191.12952	-1372.34216	452.29651	1067.45068	-1403.84680	422.39267	951.81201	-1389.45398	338.51141	836.82031	-1426.04651	384.18335	836.96942	-1424.52478	346.43283	758.65802	-1009.26355	349.95706	937.57330	-1226.23523	338.01019	941.29462	-1070.02173	532.35620	944.36798	-1214.98291	524.29834	950.47791	-943.17834	336.70334	607.76575	-950.22327	331.41895	475.48361	-949.40369	474.77670	361.62183	-1002.36658	633.31244	214.82666	-1064.44214	673.90826	220.32076	-980.76166	579.10046	80.61626	-1282.00916	366.75266	607.04236	-1253.32849	343.89276	450.29639	-1264.13953	393.49411	279.72958	-1216.31189	423.39816	76.78165	-1169.83313	475.46768	38.93917	-1210.99719	283.93073	37.06536	-1138.29724	311.84949	1710.24878	-3101.92383	1973.09912	1023.33588	-3140.66943	2012.47363	1022.04236			 
